<svg width="44" height="44" viewBox="0 0 44 44" fill="none" xmlns="http://www.w3.org/2000/svg">
<path d="M44 22C44 28.0751 41.5376 33.5751 37.5564 37.5564C33.5751 41.5376 28.0751 44 22 44C15.9249 44 10.4249 41.5376 6.44365 37.5564C2.46243 33.5751 0 28.0751 0 22C0 15.9249 2.46243 10.4249 6.44365 6.44365C10.4249 2.46243 15.9249 0 22 0C28.0751 0 33.5751 2.46243 37.5564 6.44365C41.5376 10.4249 44 15.9249 44 22Z" fill="white"/>
<path d="M25.3313 15.3208H27.1571V12.1408C26.8421 12.0975 25.7588 12 24.4971 12C21.8646 12 20.0613 13.6558 20.0613 16.6992V19.5H17.1562V23.055H20.0613V32H23.6229V23.0558H26.4104L26.8529 19.5008H23.6221V17.0517C23.6229 16.0242 23.8996 15.3208 25.3313 15.3208Z" fill="#303030"/>
</svg>
